<?xml version="1.0" encoding="utf-8"?>
<!-- Generator: Adobe Illustrator 21.1.0, SVG Export Plug-In . SVG Version: 6.00 Build 0)  -->
<svg version="1.1" id="Layer_1" xmlns="http://www.w3.org/2000/svg" xmlns:xlink="http://www.w3.org/1999/xlink" x="0px" y="0px"
	 viewBox="0 0 474.8 3086.2" style="enable-background:new 0 0 474.8 3086.2;" xml:space="preserve">
<style type="text/css">
	.st0{fill:url(#SVGID_1_);}
	.st1{fill:#212121;}
</style>
<linearGradient id="SVGID_1_" gradientUnits="userSpaceOnUse" x1="237.4" y1="3177.4597" x2="237.4" y2="130.555" gradientTransform="matrix(1 0 0 -1 0 3216)">
	<stop  offset="0" style="stop-color:#2E3192"/>
	<stop  offset="1" style="stop-color:#DA1C5C"/>
</linearGradient>
<rect y="33.9" class="st0" width="474.8" height="3052.3"/>
<path class="st1" d="M47.5,2874.5c-19.8-21.2-25.4-31.8-18.2-42.2c14.6-20.9,69.7-89.8,43.5-132.7c-26.2-43-65.5-80.4-41.5-138.2
	s17.1-79,1.6-110.4s-2-53.6,0.5-63.2c2.4-9.5,12.4-20.5-2.5-53.9s10.5-107,37.1-142.7c26.6-35.7,39-126.5,26.6-171.2
	c-12.3-44.7-38.6-101.7-11.4-201.6s58.6-122.6,32.3-189.3s-34.2-180.5,0.7-383.7c0,0,42.5-139.9-13.5-200
	c-56-60.1-14.6-103.4-24.9-172.2s-6.3-80.3-34.2-114.9c-27.9-34.6-18.9-83.4-10.4-110.8C41.7,620.1,21.8,554.4,0,520V0h474.8v1251.9
	c0,0-21.2,18.8-43.7,32.3c-22.5,13.6-47.1,40.5-39.9,89.2c7.2,48.6,12,84.4-11.6,123.6c-23.6,39.2-40.7,54.8-55.6,77.6
	s-14.7,42.6-14.7,42.6s-3.7,33.3,1.4,68.2c5.1,34.9,3.6,58.4-8.1,81.3c-11.7,22.9-70.4,138.4-43,231.2s-7.1,111.6-22.3,139.6
	c-15.2,28-113.2,159.4-97,227c3.7,15.4,8.7,13.5-1.6,36.6c-10.3,23.1,2.7,33.1,14.4,49.2c11.7,16,25.6,37.2-1.8,76.9
	s-22,79.1,4.8,122.2s13.1,95.5-18,134.3s-74,32.5-90.7,61.2c-5.2,9,9.3,17.8,11.5,33.2c0,0-0.1,8.5-9,14.7s-1.8,8,0,8.3
	c1.8,0.3,4.3,3.4-1.5,6.8c-5.8,3.4-5.8,7.7-5.8,7.7s-0.8-6.5,2.3-8.4c3.1-1.9,4.8-3,2.4-3.5s-6.7-2-6.2-6.5s3.8-5.6,5.9-7.8
	C49.1,2887.1,53.8,2881.3,47.5,2874.5z"/>
</svg>
