<?xml version="1.0" encoding="utf-8"?>
<!-- Generator: Adobe Illustrator 21.1.0, SVG Export Plug-In . SVG Version: 6.00 Build 0)  -->
<svg version="1.1" id="Layer_1" xmlns="http://www.w3.org/2000/svg" xmlns:xlink="http://www.w3.org/1999/xlink" x="0px" y="0px"
	 viewBox="0 0 612 792" style="enable-background:new 0 0 612 792;" xml:space="preserve">
<style type="text/css">
	.st0{fill:#E2231A;stroke:#000000;stroke-miterlimit:10;}
</style>
<path class="st0" d="M326.4,169.5c0,0,0.7,0.5,0,1.8c-0.7,1.2-0.3,1.6-0.3,1.6l0.6,0.6l-0.4,6.6c0,0-1.3,5.4-3.9,11
	c0,0-0.9,2.1-0.4,3c0,0-2.1,8-0.9,13.7c0,0-0.4,0.4-0.4,1.8c0.1,1.4,1.2,7.9,1.2,7.9s0.9,5.2,0.4,7.7c-0.5,2.4-1.6,6.1-1.6,6.1
	s-0.7,2.8,0.4,4.6c1.1,1.8,2.8,2.5,2.8,2.5s8.5,2,14.9-0.3c0,0,3.4-1.2,2.9-5.5c0,0-0.2-2.4-0.9-3.9c0,0-1.3-3.3-1.1-6.7
	s1-7.7,1-7.7l0.6-3.9c0,0,0.5-1.9-0.2-2.7c0,0,1.2-7.7-1.2-13.5c0,0,0.8-0.2,0.1-2.1s-2.6-6.8-2.6-6.8l-1.3-3.4l-0.4-2.3l-0.2-2.2
	l0.1-3.9l0.6-0.6c0,0,0.2-0.3-0.1-1c-0.3-0.7-0.7-1.7-0.7-1.7l0.3-0.5c0,0,0.3-0.6-0.6-1.3l-0.6-0.2h-7.1l-0.5,0.3
	C326.9,168.3,326.4,168.6,326.4,169.5z"/>
</svg>
