<?xml version="1.0" encoding="utf-8"?>
<!-- Generator: Adobe Illustrator 21.1.0, SVG Export Plug-In . SVG Version: 6.00 Build 0)  -->
<svg version="1.1" id="Layer_1" xmlns="http://www.w3.org/2000/svg" xmlns:xlink="http://www.w3.org/1999/xlink" x="0px" y="0px"
	 viewBox="0 0 612 792" style="enable-background:new 0 0 612 792;" xml:space="preserve">
<style type="text/css">
	.st0{fill:#ED1C24;stroke:#000000;stroke-miterlimit:10;}
	.st1{fill:#FFFFFF;stroke:#000000;stroke-miterlimit:10;}
</style>
<circle class="st0" cx="250.2" cy="431.5" r="180.3"/>
<circle class="st0" cx="443.7" cy="247.8" r="80.6"/>
<circle class="st0" cx="472.8" cy="124.4" r="29.1"/>
<path class="st1" d="M99.8,410.2c0,0,69.6-91.7,120-91.7l-49.3-25.1C170.5,293.4,99.8,334.1,99.8,410.2z"/>
<path class="st1" d="M386.2,245.8c0,0,36.2-47.7,62.5-47.7L423,185C423,185,386.2,206.2,386.2,245.8z"/>
<path class="st1" d="M450.7,124.4c0,0,12.8-16.9,22.1-16.9l-9.1-4.6C463.7,102.9,450.7,110.4,450.7,124.4z"/>
<circle class="st0" cx="521.1" cy="79.3" r="16.6"/>
<path class="st1" d="M508.5,79.3c0,0,7.3-9.7,12.7-9.7l-5.2-2.6C515.9,67,508.5,71.3,508.5,79.3z"/>
</svg>
