<svg id="Layer_1" data-name="Layer 1" xmlns="http://www.w3.org/2000/svg" xmlns:xlink="http://www.w3.org/1999/xlink" viewBox="0 0 474.8 3084.17"><defs><style>.cls-1{fill:url(#linear-gradient);}.cls-2{fill:#212121;}</style><linearGradient id="linear-gradient" x1="237.4" y1="3177.46" x2="237.4" y2="132.55" gradientTransform="matrix(1, 0, 0, -1, 0, 3216)" gradientUnits="userSpaceOnUse"><stop offset="0" stop-color="#2e3192"/><stop offset="1" stop-color="#da1c5c"/></linearGradient></defs><title>Artboard 1</title><rect class="cls-1" y="33.89" width="474.8" height="3050.27"/><path class="cls-2" d="M47.48,2874.49c-19.84-21.2-25.4-31.81-18.16-42.22,14.56-20.9,69.7-89.75,43.53-132.72s-65.51-80.38-41.5-138.23,17.13-79,1.64-110.42-2-53.64.49-63.19S45.87,2367.2,31,2333.8s10.49-107,37.05-142.67S107,2064.6,94.7,2019.9s-38.62-101.68-11.4-201.6,58.6-122.56,32.31-189.26-34.15-180.49.69-383.74c0,0,42.51-139.91-13.53-200S88.14,941.84,77.87,873.13s-6.33-80.31-34.19-114.87-18.91-83.4-10.43-110.77S21.76,554.4,0,520V0H474.8V1251.9s-21.21,18.77-43.68,32.34-47.08,40.55-39.85,89.19,12,84.4-11.55,123.58-40.74,54.76-55.61,77.6-14.68,42.57-14.68,42.57-3.7,33.29,1.38,68.21,3.62,58.4-8.08,81.31-70.36,138.39-43,231.17-7.12,111.57-22.32,139.55-113.17,159.45-97,227c3.69,15.42,8.71,13.47-1.57,36.62s2.69,33.14,14.38,49.17,25.65,37.19-1.78,76.89-22,79.1,4.84,122.18,13.14,95.49-18,134.31-74,32.52-90.73,61.21c-5.24,9,9.35,17.76,11.54,33.22,0,0-.06,8.52-9,14.68s-1.85,8,0,8.31,4.31,3.39-1.54,6.77-5.85,7.69-5.85,7.69S41.86,2909,45,2907s4.81-3,2.4-3.49-6.73-2-6.25-6.49,3.85-5.65,5.89-7.81S53.84,2881.28,47.48,2874.49Z"/><image width="5666" height="3142" transform="matrix(-0.08, 0, 0, 0.08, 474.99, 2823.04)" xlink:href="smokersforwebsite.png"/></svg>